<svg width="16" height="15" viewBox="0 0 16 15" fill="none" xmlns="http://www.w3.org/2000/svg">
<path d="M2.678 10.894C2.7818 10.9982 2.86133 11.124 2.91094 11.2625C2.96055 11.4009 2.97901 11.5486 2.965 11.695C2.89455 12.3726 2.76131 13.0421 2.567 13.695C3.962 13.372 4.814 12.998 5.201 12.802C5.4205 12.6908 5.67329 12.6645 5.911 12.728C6.5923 12.9104 7.29472 13.0018 8 13C11.996 13 15 10.193 15 7C15 3.807 11.996 1 8 1C4.004 1 1 3.808 1 7C1 8.468 1.617 9.83 2.678 10.894ZM2.185 14.799C1.94806 14.8459 1.71036 14.8889 1.472 14.928C1.272 14.96 1.12 14.752 1.199 14.566C1.28755 14.3565 1.36893 14.144 1.443 13.929L1.446 13.919C1.694 13.199 1.896 12.371 1.97 11.6C0.743 10.37 0 8.76 0 7C0 3.134 3.582 0 8 0C12.418 0 16 3.134 16 7C16 10.866 12.418 14 8 14C7.20761 14.0018 6.41845 13.8989 5.653 13.694C5.133 13.957 4.014 14.436 2.185 14.799Z" fill="#636363"/>
<path d="M4 4.5C4 4.36739 4.05268 4.24021 4.14645 4.14645C4.24021 4.05268 4.36739 4 4.5 4H11.5C11.6326 4 11.7598 4.05268 11.8536 4.14645C11.9473 4.24021 12 4.36739 12 4.5C12 4.63261 11.9473 4.75979 11.8536 4.85355C11.7598 4.94732 11.6326 5 11.5 5H4.5C4.36739 5 4.24021 4.94732 4.14645 4.85355C4.05268 4.75979 4 4.63261 4 4.5ZM4 7C4 6.86739 4.05268 6.74021 4.14645 6.64645C4.24021 6.55268 4.36739 6.5 4.5 6.5H11.5C11.6326 6.5 11.7598 6.55268 11.8536 6.64645C11.9473 6.74021 12 6.86739 12 7C12 7.13261 11.9473 7.25979 11.8536 7.35355C11.7598 7.44732 11.6326 7.5 11.5 7.5H4.5C4.36739 7.5 4.24021 7.44732 4.14645 7.35355C4.05268 7.25979 4 7.13261 4 7ZM4 9.5C4 9.36739 4.05268 9.24021 4.14645 9.14645C4.24021 9.05268 4.36739 9 4.5 9H8.5C8.63261 9 8.75979 9.05268 8.85355 9.14645C8.94732 9.24021 9 9.36739 9 9.5C9 9.63261 8.94732 9.75979 8.85355 9.85355C8.75979 9.94732 8.63261 10 8.5 10H4.5C4.36739 10 4.24021 9.94732 4.14645 9.85355C4.05268 9.75979 4 9.63261 4 9.5Z" fill="#636363"/>
</svg>
